<svg width="136" height="29" viewBox="0 0 136 29" fill="none" xmlns="http://www.w3.org/2000/svg">
<g clip-path="url(#clip0_5_21)">
<g clip-path="url(#clip1_5_21)">
<g clip-path="url(#clip2_5_21)">
<rect x="7.5906" y="4.94949" width="16" height="16" rx="2" transform="rotate(15 7.5906 4.94949)" fill="#3B79FF"/>
<rect x="9.53695" y="8.32066" width="10" height="10" rx="1" transform="rotate(15 9.53695 8.32066)" fill="#3770ED"/>
<rect x="16.7322" y="9.46954" width="4" height="4" rx="1" transform="rotate(15 16.7322 9.46954)" fill="white"/>
</g>
</g>
<rect x="5.82283" y="1.88763" width="21" height="21" rx="4.5" transform="rotate(15 5.82283 1.88763)" stroke="#6D6D6D" stroke-dasharray="2 2"/>
</g>
<path d="M30.128 23C29.908 23 29.776 22.868 29.776 22.648V11.648C29.776 11.45 29.908 11.318 30.128 11.318H32.9C33.12 11.318 33.252 11.406 33.252 11.648L33.318 12.77C34.154 11.626 35.386 11.098 36.904 11.098C38.576 11.098 39.83 11.736 40.534 12.88C41.37 11.67 42.712 11.098 44.318 11.098C47.002 11.098 48.564 12.704 48.564 15.388V22.648C48.564 22.868 48.432 23 48.234 23H44.956C44.758 23 44.604 22.868 44.604 22.648V16.862C44.604 15.234 44.098 14.574 43.02 14.574C41.898 14.574 41.15 15.432 41.15 17.148V22.648C41.15 22.868 41.018 23 40.798 23H37.542C37.322 23 37.19 22.868 37.19 22.648V16.862C37.19 15.234 36.684 14.574 35.606 14.574C34.484 14.574 33.736 15.432 33.736 17.148V22.648C33.736 22.868 33.604 23 33.384 23H30.128ZM57.272 23.22C53.378 23.22 50.87 20.734 50.87 17.148C50.87 13.584 53.378 11.098 57.272 11.098C61.166 11.098 63.674 13.584 63.674 17.148C63.674 20.734 61.166 23.22 57.272 23.22ZM57.272 19.744C58.702 19.744 59.67 18.666 59.67 17.148C59.67 15.63 58.702 14.574 57.272 14.574C55.842 14.574 54.874 15.63 54.874 17.148C54.874 18.666 55.842 19.744 57.272 19.744ZM71.8703 23.22C67.9763 23.22 65.4683 20.734 65.4683 17.148C65.4683 13.584 67.9763 11.098 71.8703 11.098C75.7643 11.098 78.2723 13.584 78.2723 17.148C78.2723 20.734 75.7643 23.22 71.8703 23.22ZM71.8703 19.744C73.3003 19.744 74.2683 18.666 74.2683 17.148C74.2683 15.63 73.3003 14.574 71.8703 14.574C70.4403 14.574 69.4723 15.63 69.4723 17.148C69.4723 18.666 70.4403 19.744 71.8703 19.744ZM81.0125 23C80.7925 23 80.6605 22.868 80.6605 22.648V11.648C80.6605 11.45 80.7925 11.318 81.0125 11.318H83.7625C83.9825 11.318 84.1365 11.428 84.1365 11.648L84.1805 12.682C85.0385 11.626 86.3365 11.098 87.8765 11.098C90.6485 11.098 92.2105 12.704 92.2105 15.388V22.648C92.2105 22.868 92.0785 23 91.8585 23H88.6025C88.3825 23 88.2505 22.868 88.2505 22.648V16.862C88.2505 15.234 87.7445 14.574 86.5785 14.574C85.4345 14.574 84.6205 15.432 84.6205 17.148V22.648C84.6205 22.868 84.4885 23 84.2685 23H81.0125ZM95.4603 23C95.2403 23 95.1083 22.868 95.1083 22.648V6.852C95.1083 6.632 95.2403 6.5 95.4603 6.5H98.7163C98.9363 6.5 99.0683 6.632 99.0683 6.852V22.648C99.0683 22.868 98.9363 23 98.7163 23H95.4603ZM107.58 23.22C103.862 23.22 101.464 20.734 101.464 17.148C101.464 13.584 103.862 11.098 107.58 11.098C111.474 11.098 113.586 13.848 113.366 17.83C113.344 18.05 113.212 18.16 112.992 18.16H105.468C105.754 19.304 106.502 19.942 107.602 19.942C108.46 19.942 109.12 19.678 109.538 19.106C109.67 18.952 109.824 18.908 110 18.952L112.816 19.898C113.014 19.986 113.102 20.14 112.992 20.36C111.914 22.362 109.802 23.22 107.58 23.22ZM107.536 14.2C106.436 14.2 105.71 14.816 105.468 16.004H109.472C109.252 14.838 108.57 14.2 107.536 14.2ZM120.485 23.22C117.537 23.22 116.239 21.394 116.239 18.05V14.706H114.853C114.633 14.706 114.501 14.574 114.501 14.354V11.714C114.501 11.516 114.633 11.362 114.853 11.362H116.239V8.612C116.239 8.392 116.371 8.26 116.591 8.26H119.847C120.067 8.26 120.199 8.392 120.199 8.612V11.362H122.531C122.751 11.362 122.883 11.516 122.883 11.714V14.354C122.883 14.574 122.751 14.706 122.531 14.706H120.199V18.424C120.199 19.414 120.463 19.876 121.079 19.876C121.343 19.876 121.519 19.766 121.717 19.458C121.827 19.304 121.937 19.26 122.157 19.37L124.379 20.316C124.577 20.404 124.643 20.602 124.511 20.866C123.675 22.538 122.025 23.22 120.485 23.22ZM130.648 23.22C128.008 23.22 126.16 22.142 125.412 20.162C125.324 19.964 125.434 19.81 125.654 19.766L128.294 19.216C128.492 19.172 128.624 19.238 128.734 19.414C129.13 20.052 129.768 20.338 130.516 20.338C131.198 20.338 131.638 20.14 131.638 19.722C131.638 19.392 131.374 19.15 130.406 18.886L129.966 18.776C126.93 17.984 125.874 16.488 125.874 14.706C125.874 12.594 127.832 11.098 130.67 11.098C133.156 11.098 134.762 12.022 135.488 14.024C135.576 14.244 135.488 14.398 135.246 14.442L132.694 15.036C132.496 15.08 132.364 14.992 132.276 14.816C131.946 14.266 131.528 13.98 130.824 13.98C130.296 13.98 129.9 14.156 129.9 14.574C129.9 14.97 130.318 15.234 131.198 15.454L131.616 15.564C134.696 16.334 135.686 17.522 135.686 19.524C135.686 21.768 133.574 23.22 130.648 23.22Z" fill="black"/>
<defs>
<clipPath id="clip0_5_21">
<rect width="26" height="26" fill="white" transform="translate(0 1.5)"/>
</clipPath>
<clipPath id="clip1_5_21">
<rect x="6.17638" y="2.5" width="20" height="20" rx="4" transform="rotate(15 6.17638 2.5)" fill="white"/>
</clipPath>
<clipPath id="clip2_5_21">
<rect x="7.5906" y="4.94949" width="16" height="16" rx="2" transform="rotate(15 7.5906 4.94949)" fill="white"/>
</clipPath>
</defs>
</svg>
